<svg class="img-fluid" id="outputsvg" xmlns="http://www.w3.org/2000/svg" style="transform: none; transform-origin: 50% 50%; cursor: move; max-height: none;" width="1000" height="1000" viewBox="0 0 10000 10000"><g id="lkdLZp8yjBbPyCgjzDMzv3" fill="rgb(222,171,39)" style="transform: none;"><g><path id="pyszVJ6jT" d="M0 5000 l0 -5000 5000 0 5000 0 0 5000 0 5000 -5000 0 -5000 0 0 -5000z m1445 3614 c28 -7 78 -31 110 -52 33 -21 335 -279 670 -573 1260 -1105 1136 -999 1178 -999 l37 0 0 616 c0 669 1 676 57 788 75 148 283 259 438 235 71 -12 148 -45 208 -91 24 -18 434 -375 911 -793 741 -649 873 -760 902 -763 l34 -3 0 623 c0 666 1 671 51 774 39 79 131 169 213 209 98 48 160 59 246 41 108 -23 181 -66 294 -174 34 -32 333 -312 666 -622 333 -311 607 -567 610 -570 3 -3 241 -227 530 -496 289 -270 540 -508 559 -529 19 -22 50 -73 70 -114 33 -70 36 -83 36 -166 -1 -76 -5 -100 -30 -159 -55 -132 -197 -245 -346 -275 -46 -10 -70 -9 -135 5 -145 29 -94 -12 -854 699 -1034 968 -941 885 -982 885 l-38 0 0 -598 c0 -521 -2 -605 -16 -653 -36 -119 -95 -201 -194 -268 -154 -102 -344 -96 -493 17 -54 42 -1472 1279 -1693 1479 -70 62 -87 73 -118 73 l-35 0 -3 -642 c-3 -642 -3 -643 -26 -699 -71 -176 -241 -300 -410 -301 -78 -1 -173 28 -240 72 -32 21 -450 382 -930 804 -791 694 -877 766 -908 766 l-34 0 0 -604 c0 -368 -4 -624 -10 -657 -44 -232 -286 -419 -492 -380 -64 11 -164 59 -222 104 -59 47 -123 141 -146 214 -20 64 -20 91 -20 1232 0 1276 -3 1206 57 1326 69 134 273 254 408 238 22 -3 63 -11 90 -19z m-33 -4135 c71 -15 133 -48 211 -111 35 -29 424 -368 863 -753 963 -845 881 -775 921 -775 l33 0 0 624 c0 604 1 626 21 692 38 125 123 225 240 284 158 80 313 58 466 -67 87 -71 1730 -1511 1738 -1523 3 -5 24 -10 46 -10 l39 0 0 618 c0 673 1 680 57 785 59 107 145 179 261 218 127 42 249 25 363 -51 38 -25 273 -239 494 -449 39 -37 342 -321 675 -631 333 -311 611 -570 618 -577 7 -7 140 -131 295 -275 444 -414 468 -441 503 -572 62 -232 -116 -485 -372 -529 -112 -19 -228 16 -331 99 -26 21 -181 163 -343 314 -162 152 -405 379 -540 505 -135 126 -352 329 -482 452 -217 205 -240 223 -272 223 l-36 0 0 -595 c0 -683 0 -679 -79 -796 -77 -113 -174 -178 -300 -201 -103 -19 -236 15 -325 85 -37 29 -659 571 -1461 1275 -286 251 -313 272 -347 272 l-37 0 -3 -637 c-3 -594 -4 -641 -22 -688 -40 -108 -137 -220 -231 -268 -131 -66 -307 -54 -429 30 -22 16 -391 336 -820 712 -430 376 -827 723 -883 772 -80 71 -108 89 -132 89 l-31 0 0 -607 c0 -672 -2 -697 -62 -801 -93 -164 -291 -270 -445 -238 -147 32 -274 130 -341 265 l-37 75 -3 1175 c-3 1247 -4 1231 44 1339 31 71 131 170 213 211 96 49 169 60 263 40z"></path></g></g><g id="l39EJYlqw7jG4fjLPY5nfDP" fill="rgb(255,255,255)" style="transform: none;"><g><path id="pTewT2s2S" d="M1230 8656 c-123 -28 -262 -131 -313 -231 -60 -120 -57 -47 -57 -1356 0 -1171 0 -1198 20 -1262 23 -74 87 -167 147 -215 72 -57 179 -101 263 -108 222 -19 408 104 498 330 15 36 17 119 22 680 l5 639 875 -768 c481 -422 900 -784 932 -805 76 -50 163 -74 268 -74 200 0 366 114 442 303 23 56 23 57 26 699 1 353 5 642 8 642 4 0 43 -33 88 -73 221 -200 1639 -1437 1694 -1479 114 -87 291 -117 434 -74 110 33 222 126 273 226 55 109 55 105 55 752 0 329 3 598 8 598 4 0 136 -121 293 -268 157 -147 454 -424 659 -617 661 -619 666 -623 745 -667 34 -19 167 -48 219 -48 173 0 365 127 432 286 26 63 29 79 29 189 0 117 -1 122 -36 196 -20 41 -51 92 -70 114 -19 21 -270 259 -559 529 -289 269 -527 493 -530 496 -3 3 -277 259 -610 570 -333 310 -633 591 -667 624 -119 113 -198 157 -322 177 -215 36 -436 -99 -517 -316 -18 -46 -19 -97 -24 -691 l-5 -641 -850 744 c-467 410 -875 765 -905 790 -124 101 -272 140 -410 109 -140 -32 -269 -125 -323 -232 -56 -112 -57 -119 -57 -788 0 -339 -3 -616 -7 -616 -5 0 -127 104 -273 232 -146 128 -539 473 -875 767 -335 294 -637 551 -669 573 -33 21 -81 45 -108 53 -71 21 -184 26 -248 11z"></path><path id="pH0P2s3Gj" d="M1224 4510 c-116 -23 -271 -146 -318 -252 -48 -108 -47 -91 -44 -1369 l3 -1205 37 -75 c69 -140 202 -239 360 -269 181 -33 388 70 486 242 60 104 62 129 62 801 l0 608 103 -89 c56 -49 453 -397 883 -773 429 -376 798 -696 820 -712 127 -87 350 -100 489 -30 94 48 191 160 231 268 18 47 19 94 22 688 1 350 6 637 10 637 4 0 147 -123 317 -272 1013 -889 1447 -1267 1482 -1291 59 -41 148 -69 238 -74 184 -12 324 56 426 206 79 117 79 113 79 796 0 327 3 595 6 595 3 0 112 -100 242 -223 130 -123 347 -326 482 -452 135 -126 378 -353 540 -504 328 -307 375 -347 440 -378 177 -84 404 -46 541 90 94 93 139 201 139 337 0 145 -44 244 -160 360 -41 41 -202 193 -357 338 -155 144 -288 268 -295 275 -7 7 -285 266 -618 577 -333 310 -636 594 -675 631 -221 210 -456 424 -494 449 -85 57 -146 75 -256 74 -197 0 -341 -81 -428 -241 -56 -105 -57 -112 -57 -785 0 -380 -4 -618 -9 -618 -6 0 -13 5 -16 10 -8 12 -1651 1452 -1738 1523 -71 58 -135 91 -205 106 -157 33 -312 -8 -429 -113 -65 -59 -106 -123 -132 -210 -20 -66 -21 -88 -21 -693 0 -619 0 -624 -20 -610 -11 7 -391 339 -846 738 -911 798 -936 820 -1003 853 -84 43 -211 57 -317 36z"></path></g></g></svg>